<svg width="178" height="152" viewBox="0 0 178 152" fill="none" xmlns="http://www.w3.org/2000/svg">
<path d="M19.5739 114.86H18.4939L10.1339 94.6203C9.65387 93.5003 9.2672 92.5136 8.97387 91.6603L8.57387 94.7003L5.29386 116.34H3.33386L8.05387 87.5003H9.17387L18.0939 108.7C18.5472 109.687 18.9072 110.62 19.1739 111.5C19.2539 111.207 19.6672 110.287 20.4139 108.74L30.3739 87.5003H31.4539L35.8139 116.34H33.8139L30.6939 94.6203C30.4805 93.2603 30.3739 92.2336 30.3739 91.5403C30.3472 91.5669 30.2805 91.7003 30.1739 91.9403C30.0939 92.1536 29.9339 92.5269 29.6939 93.0603C29.4805 93.5669 29.2539 94.1003 29.0139 94.6603L19.5739 114.86ZM54.6711 116.74C50.9644 116.74 47.8577 115.447 45.3511 112.86C42.8444 110.274 41.5911 107.114 41.5911 103.38C41.5911 99.6203 42.8444 96.4469 45.3511 93.8603C47.8577 91.2736 50.9644 89.9803 54.6711 89.9803C58.3777 89.9803 61.4844 91.2736 63.9911 93.8603C66.4977 96.4469 67.7511 99.6203 67.7511 103.38C67.7511 107.114 66.4977 110.274 63.9911 112.86C61.4844 115.447 58.3777 116.74 54.6711 116.74ZM54.6711 91.6203C51.4711 91.6203 48.8044 92.7536 46.6711 95.0203C44.5644 97.2869 43.5111 100.074 43.5111 103.38C43.5111 106.66 44.5644 109.434 46.6711 111.7C48.8044 113.94 51.4711 115.06 54.6711 115.06C57.8977 115.06 60.5644 113.94 62.6711 111.7C64.7777 109.434 65.8311 106.66 65.8311 103.38C65.8311 100.074 64.7777 97.2869 62.6711 95.0203C60.5644 92.7536 57.8977 91.6203 54.6711 91.6203ZM75.7692 116.34V90.2203H76.6492L93.6892 109.82C94.3025 110.514 94.8625 111.207 95.3692 111.9C95.9025 112.567 96.1825 112.914 96.2092 112.94C96.1558 112.3 96.1292 111.047 96.1292 109.18V90.3803H97.9692V116.5H97.0892L79.7292 96.5803L77.5292 93.9003C77.5825 94.4336 77.6092 95.6869 77.6092 97.6603V116.34H75.7692ZM118.406 91.6203C115.446 91.6203 112.953 92.7536 110.926 95.0203C108.926 97.2603 107.926 100.02 107.926 103.3C107.926 106.58 109.059 109.367 111.326 111.66C113.593 113.927 116.259 115.06 119.326 115.06C122.419 115.06 124.819 114.7 126.526 113.98V103.3H128.366V114.82C126.286 116.1 123.339 116.74 119.526 116.74C115.713 116.74 112.499 115.447 109.886 112.86C107.273 110.274 105.966 107.1 105.966 103.34C105.966 99.5536 107.139 96.3803 109.486 93.8203C111.859 91.2603 114.913 89.9803 118.646 89.9803C121.659 89.9803 124.606 90.4469 127.486 91.3803L127.006 92.9003C124.233 92.0469 121.366 91.6203 118.406 91.6203ZM148.577 116.74C144.871 116.74 141.764 115.447 139.257 112.86C136.751 110.274 135.497 107.114 135.497 103.38C135.497 99.6203 136.751 96.4469 139.257 93.8603C141.764 91.2736 144.871 89.9803 148.577 89.9803C152.284 89.9803 155.391 91.2736 157.897 93.8603C160.404 96.4469 161.657 99.6203 161.657 103.38C161.657 107.114 160.404 110.274 157.897 112.86C155.391 115.447 152.284 116.74 148.577 116.74ZM148.577 91.6203C145.377 91.6203 142.711 92.7536 140.577 95.0203C138.471 97.2869 137.417 100.074 137.417 103.38C137.417 106.66 138.471 109.434 140.577 111.7C142.711 113.94 145.377 115.06 148.577 115.06C151.804 115.06 154.471 113.94 156.577 111.7C158.684 109.434 159.737 106.66 159.737 103.38C159.737 100.074 158.684 97.2869 156.577 95.0203C154.471 92.7536 151.804 91.6203 148.577 91.6203Z" fill="white"/>
<path d="M12.0539 146.628C9.55787 146.628 7.41386 145.78 5.62186 144.084C3.82986 142.372 2.93386 140.268 2.93386 137.772C2.93386 135.26 3.71786 133.156 5.28586 131.46C6.85387 129.748 8.86187 128.892 11.3099 128.892C13.2299 128.892 15.1739 129.212 17.1419 129.852L16.8299 130.812C14.9099 130.236 13.0699 129.948 11.3099 129.948C9.21387 129.948 7.50187 130.7 6.17386 132.204C4.84586 133.708 4.18186 135.548 4.18186 137.724C4.18186 139.9 4.94986 141.756 6.48586 143.292C8.03786 144.812 9.89387 145.572 12.0539 145.572C13.9419 145.572 15.5739 145.284 16.9499 144.708L17.3099 145.524C16.7019 145.876 15.9019 146.148 14.9099 146.34C13.9339 146.532 12.9819 146.628 12.0539 146.628ZM21.5367 146.34V130.764H22.6407V145.332H29.7927V146.34H21.5367ZM33.0679 146.34V130.764H34.1719V146.34H33.0679ZM39.9351 146.34V130.764H47.2071V131.724H41.0391V137.388H46.6071V138.324H41.0391V145.332H47.4471V146.34H39.9351ZM51.8648 146.34V130.668H52.3928L62.6168 142.428C62.9848 142.844 63.3208 143.26 63.6248 143.676C63.9448 144.076 64.1128 144.284 64.1288 144.3C64.0968 143.916 64.0808 143.164 64.0808 142.044V130.764H65.1848V146.436H64.6568L54.2408 134.484L52.9208 132.876C52.9528 133.196 52.9688 133.948 52.9688 135.132V146.34H51.8648ZM73.7269 131.748H68.4469V130.764H80.0869V131.748H74.8069V146.34H73.7269V131.748Z" fill="white"/>
<path d="M8.19177 75.5314V1.65099H176.417V146.34H87.2751" stroke="white" stroke-width="2"/>
</svg>
