<svg width="18" height="22" viewBox="0 0 18 22" fill="none" xmlns="http://www.w3.org/2000/svg">
<path d="M16.4631 6.31011H1.38609C1.81714 10.0524 2.71451 17.7604 2.85558 18.6539C3.03192 19.7707 3.20826 20.6524 8.9393 20.6524C13.5727 20.6524 14.7149 20.3378 14.9936 18.6539L16.4631 6.31011Z" stroke="#787878"/>
<path d="M17.2273 4.9265H0.621949C0.410342 3.13954 1.78775 2.69284 2.5029 2.69286H6.70566C6.65864 1.49371 7.62655 1.17438 8.11638 1.16461H9.70343C11.0906 1.16461 11.2807 2.18345 11.2023 2.69286H14.9936C17.1802 2.69286 17.3938 4.18195 17.2273 4.9265Z" stroke="#787878"/>
<path d="M6.58801 8.5143H5.08911V18.3011H6.58801V8.5143Z" stroke="#787878"/>
<path d="M9.65576 8.5143H8.15686V18.3011H9.65576V8.5143Z" stroke="#787878"/>
<path d="M12.7233 8.5143H11.2244V18.3011H12.7233V8.5143Z" stroke="#787878"/>
</svg>
