<svg width="37" height="37" viewBox="0 0 37 37" fill="none" xmlns="http://www.w3.org/2000/svg">
<rect x="0.70166" y="0.456543" width="36" height="36" rx="5" fill="url(#paint0_linear_52_34)"/>
<path d="M7.54174 24.6523H7.37974L6.12574 21.6163C6.05374 21.4483 5.99574 21.3003 5.95174 21.1723L5.89174 21.6283L5.39974 24.8743H5.10574L5.81374 20.5483H5.98174L7.31974 23.7283C7.38774 23.8763 7.44174 24.0163 7.48174 24.1483C7.49374 24.1043 7.55574 23.9663 7.66774 23.7343L9.16174 20.5483H9.32374L9.97774 24.8743H9.67774L9.20974 21.6163C9.17774 21.4123 9.16174 21.2583 9.16174 21.1543C9.15774 21.1583 9.14774 21.1783 9.13174 21.2143C9.11974 21.2463 9.09574 21.3023 9.05974 21.3823C9.02774 21.4583 8.99374 21.5383 8.95774 21.6223L7.54174 24.6523ZM12.8063 24.9343C12.2503 24.9343 11.7843 24.7403 11.4083 24.3523C11.0323 23.9643 10.8443 23.4903 10.8443 22.9303C10.8443 22.3663 11.0323 21.8903 11.4083 21.5023C11.7843 21.1143 12.2503 20.9203 12.8063 20.9203C13.3623 20.9203 13.8283 21.1143 14.2043 21.5023C14.5803 21.8903 14.7683 22.3663 14.7683 22.9303C14.7683 23.4903 14.5803 23.9643 14.2043 24.3523C13.8283 24.7403 13.3623 24.9343 12.8063 24.9343ZM12.8063 21.1663C12.3263 21.1663 11.9263 21.3363 11.6063 21.6763C11.2903 22.0163 11.1323 22.4343 11.1323 22.9303C11.1323 23.4223 11.2903 23.8383 11.6063 24.1783C11.9263 24.5143 12.3263 24.6823 12.8063 24.6823C13.2903 24.6823 13.6903 24.5143 14.0063 24.1783C14.3223 23.8383 14.4803 23.4223 14.4803 22.9303C14.4803 22.4343 14.3223 22.0163 14.0063 21.6763C13.6903 21.3363 13.2903 21.1663 12.8063 21.1663ZM15.971 24.8743V20.9563H16.103L18.659 23.8963C18.751 24.0003 18.835 24.1043 18.911 24.2083C18.991 24.3083 19.033 24.3603 19.037 24.3643C19.029 24.2683 19.025 24.0803 19.025 23.8003V20.9803H19.301V24.8983H19.169L16.565 21.9103L16.235 21.5083C16.243 21.5883 16.247 21.7763 16.247 22.0723V24.8743H15.971ZM22.3666 21.1663C21.9226 21.1663 21.5486 21.3363 21.2446 21.6763C20.9446 22.0123 20.7946 22.4263 20.7946 22.9183C20.7946 23.4103 20.9646 23.8283 21.3046 24.1723C21.6446 24.5123 22.0446 24.6823 22.5046 24.6823C22.9686 24.6823 23.3286 24.6283 23.5846 24.5203V22.9183H23.8606V24.6463C23.5486 24.8383 23.1066 24.9343 22.5346 24.9343C21.9626 24.9343 21.4806 24.7403 21.0886 24.3523C20.6966 23.9643 20.5006 23.4883 20.5006 22.9243C20.5006 22.3563 20.6766 21.8803 21.0286 21.4963C21.3846 21.1123 21.8426 20.9203 22.4026 20.9203C22.8546 20.9203 23.2966 20.9903 23.7286 21.1303L23.6566 21.3583C23.2406 21.2303 22.8106 21.1663 22.3666 21.1663ZM26.8923 24.9343C26.3363 24.9343 25.8703 24.7403 25.4943 24.3523C25.1183 23.9643 24.9303 23.4903 24.9303 22.9303C24.9303 22.3663 25.1183 21.8903 25.4943 21.5023C25.8703 21.1143 26.3363 20.9203 26.8923 20.9203C27.4483 20.9203 27.9143 21.1143 28.2903 21.5023C28.6663 21.8903 28.8543 22.3663 28.8543 22.9303C28.8543 23.4903 28.6663 23.9643 28.2903 24.3523C27.9143 24.7403 27.4483 24.9343 26.8923 24.9343ZM26.8923 21.1663C26.4123 21.1663 26.0123 21.3363 25.6923 21.6763C25.3763 22.0163 25.2183 22.4343 25.2183 22.9303C25.2183 23.4223 25.3763 23.8383 25.6923 24.1783C26.0123 24.5143 26.4123 24.6823 26.8923 24.6823C27.3763 24.6823 27.7763 24.5143 28.0923 24.1783C28.4083 23.8383 28.5663 23.4223 28.5663 22.9303C28.5663 22.4343 28.4083 22.0163 28.0923 21.6763C27.7763 21.3363 27.3763 21.1663 26.8923 21.1663Z" fill="white"/>
<path d="M6.60174 30.2519C6.18574 30.2519 5.82841 30.1106 5.52974 29.8279C5.23107 29.5426 5.08174 29.1919 5.08174 28.7759C5.08174 28.3573 5.21241 28.0066 5.47374 27.7239C5.73507 27.4386 6.06974 27.2959 6.47774 27.2959C6.79774 27.2959 7.12174 27.3493 7.44974 27.4559L7.39774 27.6159C7.07774 27.5199 6.77107 27.4719 6.47774 27.4719C6.12841 27.4719 5.84307 27.5973 5.62174 27.8479C5.40041 28.0986 5.28974 28.4053 5.28974 28.7679C5.28974 29.1306 5.41774 29.4399 5.67374 29.6959C5.93241 29.9493 6.24174 30.0759 6.60174 30.0759C6.91641 30.0759 7.18841 30.0279 7.41774 29.9319L7.47774 30.0679C7.37641 30.1266 7.24307 30.1719 7.07774 30.2039C6.91507 30.2359 6.75641 30.2519 6.60174 30.2519ZM8.18221 30.2039V27.6079H8.36621V30.0359H9.55821V30.2039H8.18221ZM10.1041 30.2039V27.6079H10.2881V30.2039H10.1041ZM11.2486 30.2039V27.6079H12.4606V27.7679H11.4326V28.7119H12.3606V28.8679H11.4326V30.0359H12.5006V30.2039H11.2486ZM13.2369 30.2039V27.5919H13.3249L15.0289 29.5519C15.0902 29.6213 15.1462 29.6906 15.1969 29.7599C15.2502 29.8266 15.2782 29.8613 15.2809 29.8639C15.2756 29.7999 15.2729 29.6746 15.2729 29.4879V27.6079H15.4569V30.2199H15.3689L13.6329 28.2279L13.4129 27.9599C13.4182 28.0133 13.4209 28.1386 13.4209 28.3359V30.2039H13.2369ZM16.8806 27.7719H16.0006V27.6079H17.9406V27.7719H17.0606V30.2039H16.8806V27.7719Z" fill="white"/>
<path d="M5.922 19.337V6.0744H32.6816V30.2039H20.9957" stroke="white" stroke-width="0.5"/>
<defs>
<linearGradient id="paint0_linear_52_34" x1="18.7017" y1="0.456543" x2="18.7017" y2="36.4565" gradientUnits="userSpaceOnUse">
<stop stop-color="#25274F"/>
<stop offset="1" stop-opacity="0"/>
</linearGradient>
</defs>
</svg>
